<svg version="1.1" id="Layer_1" xmlns="http://www.w3.org/2000/svg" x="0" y="0" xml:space="preserve" viewBox="0 0 3273.9 809.5"><style>.st0{fill:#ef3737}</style><path class="st0" d="M1275.6 184.8h162v480.3h-162zM873.3 449.6l-78-385.4H532V665h160.1V228.3L785.6 665H961l91.6-424.9v427h162V64.2H951.5zm623.5-385.4H1661v600.9h-164.2zm-137.3-8.1c-48.4 0-87.6 24.4-87.6 54.4 0 30.1 39.3 54.5 87.6 54.5 48.6 0 87.8-24.4 87.8-54.5 0-30-39.2-54.4-87.8-54.4zm1632.1 381.6l-.5-61.3V250c-21-69.7-131.5-72.7-131.5-72.7l-105 1.4c-9.8 0-140.1.8-163.2 75.2v338s3.7 67.2 127.5 79l154.5-2s109-19.7 116.4-63.3V475.3h-158.3v126.4s-7.1 8.2-18.1 7.9h-39.1s-13.9.8-19.1-7.9v-164h236.4zm-236.3-185.1c3.6-14.4 14.7-10.9 14.7-10.9h45.1c14.2 1.4 15 15.8 15 15.8v119h-74.7V252.6zM2351 550.5l-62.9-363.8H2130l131.5 496.2s17.1 41.5-24.7 53.3l-76.3 4.1v69.2h167.7s104.9-4 110.7-93l141-533.5h-164L2351 550.5zM3273.9 251v-66.2h-49.6V64.2h-165v119.6h-47.7V252h47.7v349s1.9 57.3 99.2 66.1h115.4v-64.2h-15.4s-37-5.9-35.1-23.7V251h50.5zM1941 184.8h162v480.3h-162zm84.1-128.7c-48.6 0-87.7 24.4-87.7 54.4 0 30.1 39.1 54.5 87.7 54.5 48.3 0 87.6-24.4 87.6-54.5 0-30-39.3-54.4-87.6-54.4zm-305.2 8.1h164v600.9h-164zM349.1 332.9c81.9 94.9-137.5 194.8-17.2 309.5-9.7-25.2 20.9-60.3 45.7-101.8 41.6-69.6 69.6-146.4-28.5-207.7zM197.4 0c60 165.9-316.7 286.5-104.8 523.8C24.8 353.8 346.2 220.3 197.4 0z"/><path class="st0" d="M259.3 138.4c109.8 156.1-298.4 310.3-42.7 528.7C141.2 505 492 310.2 259.3 138.4z"/><path d="M442.4 703.6H0c201.3 194.7 431.9 33.7 442.4 0z" fill="#19181c"/></svg>